<svg xmlns="http://www.w3.org/2000/svg" width="32" height="32" viewBox="0 0 32 32">
  <rect width="32" height="32" rx="10" fill="#0F172A"/>
  <path d="M4.84 17.60Q4.84 15.02 5.81 13.07Q6.79 11.12 8.47 10.07Q10.15 9.02 12.22 9.02L12.22 9.02Q13.99 9.02 15.32 9.74Q16.66 10.46 17.38 11.63L17.38 11.63L17.38 9.26L22.51 9.26L22.51 26L17.38 26L17.38 23.63Q16.63 24.80 15.29 25.52Q13.96 26.24 12.19 26.24L12.19 26.24Q10.15 26.24 8.47 25.18Q6.79 24.11 5.81 22.14Q4.84 20.18 4.84 17.60L4.84 17.60ZM17.38 17.63Q17.38 15.71 16.31 14.60Q15.25 13.49 13.72 13.49L13.72 13.49Q12.19 13.49 11.13 14.59Q10.06 15.68 10.06 17.60L10.06 17.60Q10.06 19.52 11.13 20.64Q12.19 21.77 13.72 21.77L13.72 21.77Q15.25 21.77 16.31 20.66Q17.38 19.55 17.38 17.63L17.38 17.63Z" fill="white" transform="translate(2.3, -1.6) scale(1.0)"/>
</svg>
